# xmcd
#
# Track frame offsets: 
#        150
#        16305
#        32700
#        54855
#        75234
#        92326
#        108146
#        125093
#        142457
#        160127
#
# Disc length: 2363 seconds
#
# Revision: 1
# Processed by: cddbd v1.5.2PL0 Copyright (c) Steve Scherf et al.
# Submitted via: ExactAudioCopyFreeDBPlugin 1.0
#
DISCID=7309390a
DTITLE=Magic Lady - Magic Lady
DYEAR=1988
DGENRE=R&B
TTITLE0=Betcha Can't Lose (With My Love)
TTITLE1=Love Overdrive
TTITLE2=Misty-Eyed
TTITLE3=Yes I'm Ready
TTITLE4=I Will Be His Fool
TTITLE5=Hit And Run
TTITLE6=Cupid
TTITLE7=Wait A Minute
TTITLE8=Paradise
TTITLE9=Summer Love
EXTD=
EXTT0=
EXTT1=
EXTT2=
EXTT3=
EXTT4=
EXTT5=
EXTT6=
EXTT7=
EXTT8=
EXTT9=
PLAYORDER=
